<svg xmlns="http://www.w3.org/2000/svg" width="1200" height="400" viewBox="0 0 1200 400">
<defs>
  <style><![CDATA[
    .thai { font-family: 'Kanit','Sarabun','Noto Sans Thai','Prompt','sans-serif'; font-weight: 800; }
    .latin { font-family: 'Montserrat','Inter','Kanit','Sarabun','Noto Sans','sans-serif'; font-weight: 600; }
  ]]></style>
</defs>
<rect width="1200" height="400" fill="white"/>
<g transform="translate(80,80)">
  <path d="M40 55 L80 25 L120 55 V120 H40 Z" fill="none" stroke="#30388c" stroke-width="6" stroke-linejoin="round"/>
  <rect x="68" y="85" width="24" height="35" rx="4" fill="#30388c"/>
  <rect x="122" y="40" width="44" height="18" rx="9" fill="#30388c"/>
  <rect x="162" y="58" width="6" height="18" rx="3" fill="#30388c"/>
  <rect x="148" y="76" width="12" height="36" rx="3" fill="#30388c"/>
  <path d="M166 49 C210 50, 240 78, 240 110 C240 130, 220 148, 190 150 C160 152, 140 142, 130 132" fill="none" stroke="#30388c" stroke-width="20" stroke-linecap="round"/>
</g>
<g transform="translate(420,140)">
  <text class="thai" x="0" y="0" font-size="72" fill="#30388c">สมพรเพ้นท์โปร</text>
  <text class="latin" x="2" y="48" font-size="28" fill="#30388c">Somphon Paint Pro</text>
  <text class="latin" x="2" y="88" font-size="22" fill="#30388c">รับทาสี กรุงเทพฯ-ปริมณฑล | 087-245-0878</text>
</g>
</svg>